<?xml version="1.0" encoding="utf-8"?>
<!-- Generator: Adobe Illustrator 22.1.0, SVG Export Plug-In . SVG Version: 6.00 Build 0)  -->
<svg version="1.1" id="圖層_1" xmlns="http://www.w3.org/2000/svg" xmlns:xlink="http://www.w3.org/1999/xlink" x="0px" y="0px"
	 viewBox="0 0 41.3 44.3" style="enable-background:new 0 0 41.3 44.3;" xml:space="preserve">
<style type="text/css">
	.st0{fill:#6B1317;}
</style>
<path class="st0" d="M14.3,19.7c-7.6,0-13.8,8.4-13.8,18.8c0,0.3,0,0.7,0,1h27.5c0-0.3,0-0.7,0-1C28.1,28.1,21.9,19.7,14.3,19.7z
	 M14.5,17.7c3.8,0,6.9-3,6.9-6.8c0-3.7-3.1-6.8-6.9-6.8c-3.8,0-6.9,3-6.9,6.8C7.5,14.7,10.6,17.7,14.5,17.7z"/>
<path class="st0" d="M31.2,26.3c-0.7,0-1.3,0.1-1.9,0.3c1.7,3.4,2.8,7.5,2.8,11.9c0,0.3,0,0.7,0,1h8.3c0-0.2,0-0.5,0-0.7
	C40.4,31.9,36.3,26.3,31.2,26.3z M36,20.4c0-2.5-2.1-4.5-4.6-4.5c-2.6,0-4.6,2-4.6,4.5c0,2.5,2.1,4.5,4.6,4.5
	C33.9,25,36,22.9,36,20.4z"/>
</svg>
