<?xml version="1.0" encoding="utf-8"?>
<!-- Generator: Adobe Illustrator 22.1.0, SVG Export Plug-In . SVG Version: 6.00 Build 0)  -->
<svg version="1.1" id="图层_1" xmlns="http://www.w3.org/2000/svg" xmlns:xlink="http://www.w3.org/1999/xlink" x="0px" y="0px"
	 viewBox="0 0 268 257.8" style="enable-background:new 0 0 268 257.8;" xml:space="preserve">
<style type="text/css">
	.st0{fill:#040000;}
</style>
<path class="st0" d="M182.2,129c5.1-1.3,12.5-3.3,21.2-6c70-20.7,61.3-100.2,61.3-100.2h-36.5h-17.5v-10H57.4v10H39.9H3.3
	c0,0-8.7,80.2,61.3,100.2c8.7,2.7,15.3,4,20.4,6c10.9,12,23.4,20,37.9,23.4v71.5c-37.1,2-65.5,14.7-65.5,30h153.3
	c0-15.4-28.5-27.4-65.7-30.1v-71.5C158.8,149,171.3,141,182.2,129 M209.9,56.2V32.8h17.5h26.2c0,20-5.8,66.8-54,80.8
	c-2.9,0.7-5.1,1.3-7.3,2C203.4,98.3,209.9,76.9,209.9,56.2L209.9,56.2z M66.8,113.6c-48.2-14-54-60.8-54-80.8h26.2h17.5v23.4
	c0,20.7,6.6,42.1,17.5,59.5C72,115,69.8,114.3,66.8,113.6 M133.2,101.6L99.7,123l11.7-36.1L78.5,64.2l40.9-0.7l13.9-35.4l13.9,35.4
	l40.9,0.7l-32.9,22.7l11.7,36.1L133.2,101.6z"/>
</svg>
