<?xml version="1.0" encoding="utf-8"?>
<!-- Generator: Adobe Illustrator 22.1.0, SVG Export Plug-In . SVG Version: 6.00 Build 0)  -->
<svg version="1.1" id="圖層_1" xmlns="http://www.w3.org/2000/svg" xmlns:xlink="http://www.w3.org/1999/xlink" x="0px" y="0px"
	 viewBox="0 0 27.2 23.8" style="enable-background:new 0 0 27.2 23.8;" xml:space="preserve">
<style type="text/css">
	.st0{fill:#FFFFFF;}
</style>
<path class="st0" d="M3.2,23.2c-1.4,0-2.5-1.1-2.5-2.4l0,0V7.4C0.7,6,1.8,5,3.2,5l0,0h11.1c1.4,0,2.5,1.1,2.5,2.4l0,0v13.5
	c0,1.3-1.1,2.4-2.5,2.4l0,0H3.2L3.2,23.2z M2.3,7.4v13.5c0,0.5,0.4,0.9,0.9,0.9l0,0h11.1c0.5,0,0.9-0.4,0.9-0.9l0,0V7.4
	c0-0.5-0.4-0.9-0.9-0.9l0,0H3.2C2.7,6.5,2.3,6.9,2.3,7.4L2.3,7.4z"/>
<path class="st0" d="M14.1,15.6l-2.7-2.7L8.8,17l1,1L14.1,15.6z"/>
<path class="st0" d="M26,1.2c-0.8-0.8-2.2-0.8-3,0l-0.8,0.8l3,2.9L26,4.1C26.8,3.3,26.8,2,26,1.2z M24.5,5.7l-3-2.9l-9.8,9.6l3,2.9
	L24.5,5.7z"/>
<path class="st0" d="M14.2,15.6l-4.4,2.6L8.6,17l2.6-4.2l0.1,0.1l-0.1-0.1l0.1-0.1L14.2,15.6L14.2,15.6z M11.3,13.1L8.9,17l0.9,0.9
	l4-2.3L11.3,13.1L11.3,13.1z"/>
</svg>
